<svg width="70" height="70" fill="none" xmlns="http://www.w3.org/2000/svg"><g clip-path="url(#a)"><path d="M0 35c0 19.332 15.669 35 35 35s35-15.668 35-35C70 15.67 54.33 0 35 0S0 15.67 0 35Z" fill="#47CEAC"/><path d="M70 35c0-3.033-.386-5.976-1.111-8.782-.11-.113-12.118-12.126-12.3-12.291a7.362 7.362 0 0 0-5.467-2.422c-4.055 0-7.354 3.274-7.354 7.3 0 4.412 3.492 9.067 5.438 11.321-1.161.279-1.97.842-2.176 1.624-.133.506-.009 1.181.69 1.645.118.187 1.304 1.38 1.512 1.526-.655.873-4.173 2.131-6.145 2.837-3.988 1.426-7.431 2.657-7.61 4.767-.076.916.49 1.642 1.099 2.158.159.192 2.887 2.916 3.043 3.053-.267 1.19-2.08 2.446-4.545 3.629-.107-.11-10.549-10.556-10.73-10.72a7.362 7.362 0 0 0-5.467-2.422c-4.055 0-7.354 3.274-7.354 7.3 0 5.56 5.547 11.512 6.552 12.546.08.125.188.23.315.306.08.084 11.071 11.078 11.126 11.134a.94.94 0 0 0 .052.071c1.77.276 3.584.42 5.432.42 19.331 0 35-15.668 35-35Z" fill="#36BB9A"/><path d="M21.943 45.522c0-1.68-1.375-3.047-3.066-3.047-1.69 0-3.065 1.366-3.065 3.047 0 1.68 1.375 3.047 3.065 3.047s3.066-1.366 3.066-3.047Zm-4.29 0c0-.664.55-1.205 1.224-1.205.674 0 1.223.541 1.223 1.205s-.549 1.205-1.223 1.205-1.223-.54-1.223-1.205ZM54.188 18.804c0-1.68-1.375-3.047-3.065-3.047s-3.066 1.367-3.066 3.047c0 1.681 1.375 3.048 3.066 3.048 1.69 0 3.065-1.367 3.065-3.048Zm-4.289 0c0-.664.55-1.204 1.224-1.204.674 0 1.223.54 1.223 1.204 0 .664-.55 1.205-1.223 1.205-.675 0-1.224-.54-1.224-1.205Z" fill="#F4F6F9"/><path d="M51.103 31.77c.007 0 .013.003.02.003a.92.92 0 0 0 .648-.267c.274-.271 6.706-6.717 6.706-12.702 0-4.025-3.299-7.3-7.354-7.3s-7.354 3.275-7.354 7.3c0 4.413 3.491 9.068 5.438 11.322-1.162.279-1.971.842-2.177 1.624-.144.549.012 1.298.882 1.759 1.19.63 1.435 1.065 1.428 1.169-.063.866-4.09 2.306-6.253 3.08-3.987 1.425-7.431 2.656-7.609 4.767-.134 1.596 1.683 2.616 2.28 2.95.936.526 2.023 1.332 1.878 2.186-.54 3.188-12.352 6.863-18.158 8.361 1.982-2.448 4.754-6.568 4.754-10.5 0-4.025-3.3-7.3-7.355-7.3-4.055 0-7.354 3.275-7.354 7.3 0 5.561 5.547 11.513 6.553 12.547a.91.91 0 0 0 .696.426c.021 0 .06-.005.089-.007.005 0 .01.003.016.003.013 0 .024-.006.037-.007 2.183-.222 20.703-4.777 22.43-10.076.381-1.17.225-2.907-2.684-4.54-1.365-.765-1.346-1.184-1.345-1.188.077-.93 4.186-2.399 6.393-3.188 4.09-1.461 7.321-2.617 7.47-4.682.096-1.343-1.232-2.267-2.053-2.74.349-.155.975-.327 1.957-.296.008 0 .014-.004.02-.004Zm-32.226 8.295c3.04 0 5.512 2.449 5.512 5.457 0 4.187-3.93 8.954-5.512 10.704-1.583-1.748-5.511-6.51-5.511-10.704 0-3.008 2.472-5.457 5.511-5.457Zm32.246-26.717c3.039 0 5.512 2.448 5.512 5.456 0 4.187-3.93 8.954-5.513 10.704-1.583-1.748-5.51-6.51-5.51-10.704-.001-3.008 2.471-5.456 5.51-5.456Z" fill="#F4F6F9"/></g><defs><clipPath id="a"><path fill="#fff" d="M0 0h70v70H0z"/></clipPath></defs></svg>