<svg xmlns="http://www.w3.org/2000/svg" viewBox="0 0 269.66 269.66" style="enable-background:new 0 0 269.66 269.66" xml:space="preserve"><path style="fill:#13829b" d="M242.51 132.33c-11.64 45.48-68.58 129.83-68.58 129.83h70.65V118.48c0 3.99-.74 8.67-2.07 13.85zM25.08 7.5v254.66h148.85s-41.04-60.81-60.56-107c-6.09-14.41-10.08-27.4-10.08-36.68 0-11.18 2.6-21.76 7.23-31.15 9.49-19.3 27.53-33.64 49.19-38.06 4.59-.95 9.35-1.44 14.22-1.44 27.806 0 51.917 16.079 63.42 39.5 4.63 9.39 7.23 19.97 7.23 31.15V7.5H25.08z"/><path style="fill:#28d2e4" d="M113.37 155.16v107h-45V132.33H25.08v-45h85.44c-4.63 9.39-7.23 19.97-7.23 31.15 0 9.28 3.99 22.27 10.08 36.68zM204.71 7.58v47.29c-9.3-4.51-19.75-7.04-30.78-7.04-4.87 0-9.63.49-14.22 1.44V7.58h45zM244.58 87.33v31.15c0-11.18-2.6-21.76-7.23-31.15h7.23zM244.58 118.48v13.85h-2.07c1.33-5.18 2.07-9.86 2.07-13.85z"/><path style="fill:#ffdb77" d="M237.35 87.33c-11.505-23.424-35.617-39.5-63.42-39.5-4.87 0-9.63.49-14.22 1.44-21.66 4.42-39.7 18.76-49.19 38.06-4.63 9.39-7.23 19.97-7.23 31.15 0 9.28 3.99 22.27 10.08 36.68 19.52 46.19 60.56 107 60.56 107s56.94-84.35 68.58-129.83c4.107-15.994 1.422-31.65-5.16-45zm-63.42 58.75c-15.259 0-27.6-12.397-27.6-27.6 0-15.25 12.36-27.61 27.6-27.61 15.25 0 27.61 12.36 27.61 27.61 0 15.159-12.295 27.6-27.61 27.6z"/><path style="fill:#28d2e4" d="M201.54 118.48c0 15.159-12.295 27.6-27.61 27.6-15.259 0-27.6-12.397-27.6-27.6 0-15.25 12.36-27.61 27.6-27.61 15.25 0 27.61 12.36 27.61 27.61z"/><path style="fill:#22313f" d="M244.58 0H25.08a7.5 7.5 0 0 0-7.5 7.5v254.66a7.5 7.5 0 0 0 7.5 7.5h219.5a7.5 7.5 0 0 0 7.5-7.5V7.5a7.5 7.5 0 0 0-7.5-7.5zm-70.65 248.5c-16.094-24.875-63.14-100.455-63.14-130.02 0-35.181 28.679-63.15 63.14-63.15 34.868 0 63.15 28.28 63.15 63.15 0 29.563-47.014 105.082-63.15 130.02zm-6.72-207.884V15.08h30v28.768c-9.832-3.074-20.175-4.072-30-3.232zm69.87 31.836c-6.415-8.78-14.936-16.518-24.87-22.115V15h24.87v57.452zM152.21 15v28.408c-19.398 5.63-36.139 18.809-46.194 36.422H32.58V15h119.63zM32.58 139.83h28.29v114.83H32.58V139.83zm43.29 114.83V132.33a7.5 7.5 0 0 0-7.5-7.5H32.58v-30h66.847c-7.196 22.608-2.692 39.862 6.443 61.839v97.991h-30zm45 0v-66.465c11.366 21.717 25.817 45.777 39.16 66.465h-39.16zm116.21 0h-49.247c16.745-25.964 36.352-58.9 49.247-86.827v86.827z"/><path style="fill:#22313f" d="M209.04 118.48c0-19.36-15.75-35.11-35.11-35.11-19.356 0-35.1 15.752-35.1 35.11 0 19.589 16.002 35.1 35.1 35.1 19.081 0 35.11-15.476 35.11-35.1zm-35.11 20.1c-10.926 0-20.1-8.883-20.1-20.1 0-11.089 9.018-20.11 20.1-20.11 11.087 0 20.11 9.02 20.11 20.11 0 11.243-9.193 20.1-20.11 20.1z"/></svg>