<svg width="70" height="70" viewBox="0 0 70 70" fill="none" xmlns="http://www.w3.org/2000/svg">
<g clip-path="url(#clip0_66_6)">
<path d="M0 35.0008C0 54.3321 15.6688 70.0004 34.9994 69.9999C54.3311 70.0004 69.9999 54.3322 69.9999 35.0008C70.001 15.6693 54.3311 0 34.9993 0C15.6686 0 0 15.6699 0 35.0008Z" fill="#47CEAC"/>
<path d="M70 35.0008C70.0001 31.9673 69.6142 29.0244 68.8889 26.2177C68.7789 26.1045 56.771 14.0916 56.5889 13.9269C55.2416 12.4411 53.2904 11.5049 51.1224 11.5049C47.0674 11.5049 43.7682 14.779 43.7682 18.8043C43.7682 23.2171 47.2597 27.872 49.2063 30.1264C48.0446 30.4046 47.2355 30.9685 47.03 31.7502C46.8974 32.2557 47.021 32.9311 47.7209 33.3946C47.8376 33.5823 49.0239 34.7745 49.2323 34.9211C48.5766 35.7944 45.0587 37.0524 43.0872 37.7576C39.0993 39.1837 35.6556 40.4146 35.4779 42.5251C35.4008 43.4412 35.9667 44.1671 36.5759 44.6826C36.7346 44.8746 39.4634 47.5987 39.6189 47.7361C39.3518 48.9269 37.5395 50.1823 35.0739 51.3647C34.9668 51.2552 24.5254 40.8091 24.3434 40.6445C22.9962 39.1588 21.0449 38.2227 18.8771 38.2227C14.822 38.2227 11.5229 41.4968 11.5229 45.5221C11.5229 51.0835 17.0698 57.0353 18.0754 58.0687C18.1559 58.1936 18.2634 58.2988 18.3904 58.3747C18.4704 58.4592 29.4614 69.4532 29.5161 69.5093C29.532 69.5338 29.5496 69.5571 29.5677 69.58C31.3379 69.8558 33.152 70 34.9996 70C54.3312 70.0004 70 54.3322 70 35.0008Z" fill="#36BB9A"/>
<path d="M21.9429 45.5221C21.9429 43.8414 20.5677 42.4748 18.8773 42.4748C17.1869 42.4748 15.8116 43.8414 15.8116 45.5221C15.8116 47.2028 17.1869 48.5694 18.8773 48.5694C20.5677 48.5693 21.9429 47.2027 21.9429 45.5221ZM17.6539 45.5221C17.6539 44.8581 18.2027 44.3173 18.877 44.3173C19.5513 44.3173 20.1001 44.8581 20.1001 45.5221C20.1001 46.1862 19.5513 46.7269 18.877 46.7269C18.2027 46.7267 17.6539 46.1862 17.6539 45.5221Z" fill="#F4F6F9"/>
<path d="M54.1883 18.8043C54.1883 17.1237 52.813 15.757 51.1226 15.757C49.4323 15.757 48.057 17.1236 48.057 18.8043C48.057 20.485 49.4323 21.8516 51.1226 21.8516C52.813 21.8516 54.1883 20.4851 54.1883 18.8043ZM49.8994 18.8043C49.8994 18.1402 50.4482 17.5995 51.1225 17.5995C51.7968 17.5995 52.3456 18.1402 52.3456 18.8043C52.3456 19.4683 51.7968 20.009 51.1225 20.009C50.4482 20.009 49.8994 19.4683 49.8994 18.8043Z" fill="#F4F6F9"/>
<path d="M51.1029 31.7697C51.1096 31.7698 51.1159 31.7735 51.1226 31.7735C51.357 31.7735 51.5917 31.6844 51.7714 31.5064C52.0453 31.2347 58.4774 24.7891 58.4774 18.8043C58.4774 14.779 55.1782 11.5049 51.1228 11.5049C47.0677 11.5049 43.7685 14.779 43.7685 18.8043C43.7685 23.2171 47.2601 27.872 49.2066 30.1264C48.045 30.4046 47.2359 30.9685 47.0304 31.7502C46.8864 32.2989 47.0425 33.0483 47.9121 33.509C49.1011 34.1389 49.3471 34.5744 49.34 34.6777C49.2773 35.5441 45.2508 36.9836 43.0875 37.7574C39.0996 39.1835 35.6559 40.4143 35.4782 42.5249C35.3438 44.1211 37.1611 45.1405 37.758 45.4752C38.6945 46.0006 39.781 46.8068 39.6362 47.6606C39.0959 50.8486 27.2838 54.5242 21.4782 56.0222C23.4605 53.574 26.2319 49.4544 26.2319 45.5219C26.2319 41.4967 22.9328 38.2226 18.8773 38.2226C14.8222 38.2226 11.5231 41.4967 11.5231 45.5219C11.5231 51.0834 17.07 57.0351 18.0756 58.0686C18.2205 58.2934 18.4503 58.4587 18.7305 58.4923C18.7417 58.4941 18.7552 58.4949 18.7719 58.4949C18.7931 58.4949 18.8314 58.4904 18.861 58.4882C18.8664 58.4883 18.8717 58.4913 18.8772 58.4913C18.8897 58.4913 18.9014 58.4848 18.9139 58.4842C21.0972 58.2623 39.6168 53.7071 41.3438 48.4084C41.7253 47.2387 41.5691 45.5005 38.6595 43.8685C37.2951 43.1029 37.3141 42.6835 37.3145 42.68C37.3924 41.7506 41.5008 40.2813 43.7078 39.4924C47.7983 38.0305 51.0292 36.8752 51.1777 34.8103C51.2744 33.4671 49.946 32.5431 49.125 32.0708C49.4737 31.9152 50.1 31.7432 51.0824 31.7738C51.0895 31.7737 51.0957 31.7698 51.1029 31.7697ZM18.877 40.0654C21.9161 40.0654 24.3891 42.5135 24.3891 45.5222C24.3891 49.7085 20.4591 54.4761 18.8766 56.2261C17.2935 54.478 13.3655 49.7158 13.3655 45.5222C13.3654 42.5135 15.8379 40.0654 18.877 40.0654ZM51.1226 13.3476C54.1617 13.3476 56.6347 15.7957 56.6347 18.8044C56.6347 22.9907 52.7047 27.7583 51.1222 29.5082C49.5392 27.7602 45.6111 22.998 45.6111 18.8044C45.611 15.7957 48.0832 13.3476 51.1226 13.3476Z" fill="#F4F6F9"/>
</g>
<defs>
<clipPath id="clip0_66_6">
<rect width="70" height="70" fill="white"/>
</clipPath>
</defs>
</svg>
