<?xml version="1.0" encoding="iso-8859-1"?>
<!-- Generator: Adobe Illustrator 19.0.0, SVG Export Plug-In . SVG Version: 6.00 Build 0)  -->
<svg version="1.1" id="Layer_1" xmlns="http://www.w3.org/2000/svg" xmlns:xlink="http://www.w3.org/1999/xlink" x="0px" y="0px"
	 viewBox="0 0 269.66 269.66" style="enable-background:new 0 0 269.66 269.66;" xml:space="preserve">
<g>
	<path style="fill:#13829B;" d="M242.51,132.33c-11.64,45.48-68.58,129.83-68.58,129.83h70.65V118.48
		C244.58,122.47,243.84,127.15,242.51,132.33z M25.08,7.5v254.66h148.85c0,0-41.04-60.81-60.56-107
		c-6.09-14.41-10.08-27.4-10.08-36.68c0-11.18,2.6-21.76,7.23-31.15c9.49-19.3,27.53-33.64,49.19-38.06
		c4.59-0.95,9.35-1.44,14.22-1.44c27.806,0,51.917,16.079,63.42,39.5c4.63,9.39,7.23,19.97,7.23,31.15V7.5H25.08z"/>
	<path style="fill:#28D2E4;" d="M113.37,155.16v107h-45V132.33H25.08v-45h85.44c-4.63,9.39-7.23,19.97-7.23,31.15
		C103.29,127.76,107.28,140.75,113.37,155.16z"/>
	<path style="fill:#28D2E4;" d="M204.71,7.58v47.29c-9.3-4.51-19.75-7.04-30.78-7.04c-4.87,0-9.63,0.49-14.22,1.44V7.58H204.71z"/>
	<path style="fill:#28D2E4;" d="M244.58,87.33v31.15c0-11.18-2.6-21.76-7.23-31.15H244.58z"/>
	<path style="fill:#28D2E4;" d="M244.58,118.48v13.85h-2.07C243.84,127.15,244.58,122.47,244.58,118.48z"/>
	<path style="fill:#FFDB77;" d="M237.35,87.33c-11.505-23.424-35.617-39.5-63.42-39.5c-4.87,0-9.63,0.49-14.22,1.44
		c-21.66,4.42-39.7,18.76-49.19,38.06c-4.63,9.39-7.23,19.97-7.23,31.15c0,9.28,3.99,22.27,10.08,36.68
		c19.52,46.19,60.56,107,60.56,107s56.94-84.35,68.58-129.83C246.617,116.336,243.932,100.68,237.35,87.33z M173.93,146.08
		c-15.259,0-27.6-12.397-27.6-27.6c0-15.25,12.36-27.61,27.6-27.61c15.25,0,27.61,12.36,27.61,27.61
		C201.54,133.639,189.245,146.08,173.93,146.08z"/>
	<g>
		<path style="fill:#28D2E4;" d="M201.54,118.48c0,15.159-12.295,27.6-27.61,27.6c-15.259,0-27.6-12.397-27.6-27.6
			c0-15.25,12.36-27.61,27.6-27.61C189.18,90.87,201.54,103.23,201.54,118.48z"/>
		<g>
			<path style="fill:#22313F;" d="M244.58,0H25.08c-4.143,0-7.5,3.358-7.5,7.5c0,6.283,0,243.226,0,254.66
				c0,4.142,3.357,7.5,7.5,7.5c9.253,0,210.222,0,219.5,0c4.143,0,7.5-3.358,7.5-7.5c0-27.13,0-228.155,0-254.66
				C252.08,3.358,248.723,0,244.58,0z M173.93,248.5c-16.094-24.875-63.14-100.455-63.14-130.02c0-35.181,28.679-63.15,63.14-63.15
				c34.868,0,63.15,28.28,63.15,63.15C237.08,148.043,190.066,223.562,173.93,248.5z M167.21,40.616V15.08h30v28.768
				C187.378,40.774,177.035,39.776,167.21,40.616z M237.08,72.452c-6.415-8.78-14.936-16.518-24.87-22.115V15h24.87V72.452z
				 M152.21,15v28.408c-19.398,5.63-36.139,18.809-46.194,36.422H32.58V15H152.21z M32.58,139.83h28.29v114.83H32.58V139.83z
				 M75.87,254.66V132.33c0-4.142-3.357-7.5-7.5-7.5H32.58v-30h66.847c-7.196,22.608-2.692,39.862,6.443,61.839v97.991H75.87z
				 M120.87,254.66v-66.465c11.366,21.717,25.817,45.777,39.16,66.465H120.87z M237.08,254.66h-49.247
				c16.745-25.964,36.352-58.9,49.247-86.827L237.08,254.66L237.08,254.66z"/>
			<path style="fill:#22313F;" d="M209.04,118.48c0-19.36-15.75-35.11-35.11-35.11c-19.356,0-35.1,15.752-35.1,35.11
				c0,19.589,16.002,35.1,35.1,35.1C193.011,153.58,209.04,138.104,209.04,118.48z M173.93,138.58c-10.926,0-20.1-8.883-20.1-20.1
				c0-11.089,9.018-20.11,20.1-20.11c11.087,0,20.11,9.02,20.11,20.11C194.04,129.723,184.847,138.58,173.93,138.58z"/>
		</g>
	</g>
</g>
<g>
</g>
<g>
</g>
<g>
</g>
<g>
</g>
<g>
</g>
<g>
</g>
<g>
</g>
<g>
</g>
<g>
</g>
<g>
</g>
<g>
</g>
<g>
</g>
<g>
</g>
<g>
</g>
<g>
</g>
</svg>
